<?xml version="1.0" encoding="utf-8"?>
<!-- Generator: Adobe Illustrator 19.2.0, SVG Export Plug-In . SVG Version: 6.00 Build 0)  -->
<svg version="1.1" id="Layer_1" xmlns="http://www.w3.org/2000/svg" xmlns:xlink="http://www.w3.org/1999/xlink" x="0px" y="0px"
	 viewBox="0 0 432.2 432.2" style="enable-background:new 0 0 432.2 432.2;" xml:space="preserve">
<style type="text/css">
	.st0{fill:none;stroke:#000000;stroke-width:20;stroke-miterlimit:10;}
	.st1{fill:#D8BFC6;}
	.st2{fill:#A7A9AC;}
	.st3{fill:#D3D3D3;}
</style>
<g>
	<path class="st0" d="M103.2,264.4c-2.8,4.1-5.4,18-18.8,16.8c-10.7-1-17-4.9-28.7-14.7"/>
	<polygon points="44.4,270 53.6,277.6 62.1,258.8 53,251.3 	"/>
</g>
<g>
	<path class="st0" d="M115.5,227.4c-2.8,4.1-10,13.6-22.7,16.3c-10.3,2.2-18.3-1.4-23.8-3.2"/>
	<polygon points="53.9,245.8 70.4,251.6 79,233.2 62.4,227.4 	"/>
</g>
<g>
	<path class="st1" d="M79,178.1c0,21.7-17.7,45-39.5,51.9S0,225,0,203.2s17.7-45,39.5-51.9S79,156.4,79,178.1z"/>
	<path class="st1" d="M136.9,159.7c0,21.7-17.7,45-39.5,51.9s-39.5-5.1-39.5-26.8s17.7-45,39.5-51.9S136.9,138,136.9,159.7z"/>
	<polygon class="st1" points="12.4,227.9 63.5,273.2 124.5,192.3 68.4,176.5 	"/>
</g>
<g>
	<path d="M151.3,104.2c0.2,24.8-11.9,53.7-26.9,64.6s-27.4-0.3-27.6-25.1c-0.2-24.8,11.9-53.7,26.9-64.6S151.1,79.4,151.3,104.2z"/>
	<path d="M160.8,299.6l-70.4,51l-0.7-99.4c-0.2-32,15.3-69.3,34.8-83.4l0,0c19.4-14.1,35.4,0.4,35.6,32.4L160.8,299.6z"/>
	<polygon points="117.1,393.1 98.7,406.4 98.3,344.8 116.7,331.5 	"/>
	<polygon points="153.3,366.9 134.9,380.2 134.5,318.7 152.8,305.4 	"/>
</g>
<g id="XMLID_1_">
	<path class="st2" d="M264.4,26.9c-1.8-0.7-3.7-1.1-5.7-1.1h-54.5c-4.2,0-7.9,1.7-10.7,4.4c-2.5,2.5-4.1,5.8-4.4,9.6
		c0,0.4-0.1,0.7-0.1,1.1c0,8.3,6.8,15.1,15.1,15.1h54.5c4,0,7.7-1.6,10.4-4.2c3,2.4,6.8,3.9,10.9,4.1c-3.8-3.8-6.2-9.1-6.2-14.9
		c0-0.1,0-0.1,0-0.2c0-0.1,0-0.1,0-0.2C273.7,34.5,269.8,29.1,264.4,26.9z"/>
</g>
<g id="XMLID_2_">
	<path class="st3" d="M170,60.5c1.8-0.7,3.7-1.1,5.7-1.1h54.5c4.2,0,7.9,1.7,10.7,4.4c2.5,2.5,4.1,5.8,4.4,9.6c0,0.4,0,0.7,0,1.1
		c0,8.4-6.8,15.1-15.1,15.1h-54.5c-4,0-7.7-1.6-10.4-4.2c-3,2.4-6.8,3.9-10.9,4.1c3.8-3.8,6.2-9.1,6.2-14.9c0-0.1,0-0.1,0-0.2
		c0-0.1,0-0.1,0-0.2C160.7,68,164.5,62.7,170,60.5z"/>
</g>
<g id="XMLID_3_">
	<path class="st2" d="M267.4,94.3c-1.8-0.7-3.7-1.1-5.7-1.1h-71.1c-4.2,0-7.9,1.7-10.7,4.4c-2.5,2.5-4.1,5.8-4.4,9.6
		c0,0.4-0.1,0.7-0.1,1.1c0,8.3,6.8,15.1,15.1,15.1h71.1c4,0,7.7-1.6,10.4-4.2c3,2.4,6.8,3.9,10.9,4.1c-3.8-3.8-6.2-9.1-6.2-14.9
		c0-0.1,0-0.1,0-0.2s0-0.1,0-0.2C276.7,101.8,272.9,96.5,267.4,94.3z"/>
</g>
<g>
	<path class="st0" d="M328.9,240.6c2.8,4.1,5.4,18,18.8,16.8c10.7-1,17-4.9,28.7-14.7"/>
	<polygon points="387.8,246.2 378.6,253.8 370.1,235.1 379.2,227.5 	"/>
</g>
<g>
	<path class="st0" d="M316.7,203.6c2.8,4.1,10,13.6,22.7,16.3c10.3,2.2,18.3-1.4,23.8-3.2"/>
	<polygon points="378.3,222 361.7,227.8 353.2,209.4 369.8,203.6 	"/>
</g>
<g>
	<path class="st1" d="M353.2,154.3c0,21.7,17.7,45,39.5,51.9s39.5-5.1,39.5-26.8s-17.7-45-39.5-51.9S353.2,132.6,353.2,154.3z"/>
	<path class="st1" d="M295.3,135.9c0,21.7,17.7,45,39.5,51.9c21.8,6.9,39.5-5.1,39.5-26.8s-17.7-45-39.5-51.9
		C313,102.2,295.3,114.2,295.3,135.9z"/>
	<polygon class="st1" points="419.8,204.1 368.6,249.4 307.7,168.5 363.7,152.7 	"/>
</g>
<g>
	<path d="M280.9,80.4c-0.2,24.8,11.9,53.7,26.9,64.6c15.1,10.9,27.4-0.3,27.6-25.1s-11.9-53.7-26.9-64.6
		C293.4,44.4,281,55.6,280.9,80.4z"/>
	<path d="M271.4,275.8l70.4,51l0.7-99.4c0.2-32-15.3-69.3-34.8-83.4l0,0c-19.4-14.1-35.4,0.4-35.6,32.4L271.4,275.8z"/>
	<polygon points="315.1,369.3 333.4,382.6 333.9,321.1 315.5,307.8 	"/>
	<polygon points="278.9,343.1 297.3,356.4 297.7,294.9 279.3,281.6 	"/>
</g>
</svg>
