<?xml version="1.0" encoding="utf-8"?>
<!-- Generator: Adobe Illustrator 19.2.0, SVG Export Plug-In . SVG Version: 6.00 Build 0)  -->
<svg version="1.1" id="Layer_1" xmlns="http://www.w3.org/2000/svg" xmlns:xlink="http://www.w3.org/1999/xlink" x="0px" y="0px"
	 viewBox="0 0 5038.1 6312.2" style="enable-background:new 0 0 5038.1 6312.2;" xml:space="preserve">
<style type="text/css">
	.st0{stroke:#000000;stroke-width:10;stroke-miterlimit:10;}
	.st1{fill:#FFFFFF;stroke:#000000;stroke-width:10;stroke-miterlimit:10;}
	.st2{fill:none;stroke:#000000;stroke-width:75;stroke-miterlimit:10;}
	.st3{fill:none;stroke:#000000;stroke-width:10;stroke-miterlimit:10;}
</style>
<circle class="st0" cx="2462.2" cy="258.3" r="153.1"/>
<g>
	<g>
		<g>
			<polygon points="2338.9,427.6 2201.8,713 2182.9,703.9 2190.9,808.8 2277.8,749.5 2259,740.5 2396.1,455.1 			"/>
		</g>
	</g>
</g>
<circle class="st0" cx="2086.8" cy="977.4" r="153.1"/>
<circle class="st0" cx="2635.4" cy="1242.3" r="153.1"/>
<circle class="st0" cx="3224.7" cy="842.5" r="153.1"/>
<circle class="st0" cx="1050.2" cy="1395.4" r="153.1"/>
<circle class="st0" cx="1629" cy="1745" r="153.1"/>
<circle class="st0" cx="1933.7" cy="2327.4" r="153.1"/>
<circle class="st0" cx="2442.1" cy="2021.2" r="153.1"/>
<circle class="st0" cx="2920" cy="2480.6" r="153.1"/>
<circle class="st0" cx="3377.9" cy="1944.7" r="153.1"/>
<circle class="st0" cx="4533" cy="1395.4" r="153.1"/>
<circle class="st0" cx="4386.5" cy="1944.7" r="153.1"/>
<circle class="st0" cx="4080.2" cy="2480.6" r="153.1"/>
<g>
	<g>
		<g>
			<polygon points="2467.2,454.6 2552,964.1 2531.4,967.6 2598.3,1048.8 2635.2,950.3 2614.6,953.7 2529.8,444.2 			"/>
		</g>
	</g>
</g>
<g>
	<g>
		<g>
			<polygon points="2617.1,401.1 2999.8,671.6 2987.8,688.7 3092.5,698.3 3048.5,602.7 3036.4,619.8 2653.7,349.2 			"/>
		</g>
	</g>
</g>
<g>
	<g>
		<g>
			<polygon points="1900.1,1021.6 1315.9,1255.1 1308.2,1235.7 1243.1,1318.4 1347.2,1333.4 1339.5,1314 1923.7,1080.6 			"/>
		</g>
	</g>
</g>
<g>
	<g>
		<g>
			<polygon points="1953.3,1145.5 1753.2,1481 1735.3,1470.3 1733.8,1575.5 1825.7,1524.2 1807.7,1513.5 2007.8,1178 			"/>
		</g>
	</g>
</g>
<g>
	<g>
		<g>
			<polygon points="2020,1185.5 1928.6,2034.7 1907.8,2032.4 1950.3,2128.6 2012.4,2043.7 1991.7,2041.5 2083.1,1192.3 			"/>
		</g>
	</g>
</g>
<g>
	<g>
		<g>
			<polygon points="2555.4,1433.2 2481.1,1745 2460.8,1740.1 2490.8,1840.9 2563.1,1764.5 2542.8,1759.7 2617.2,1447.9 			"/>
		</g>
	</g>
</g>
<g>
	<g>
		<g>
			<polygon points="2656.8,1447.3 2814.2,2196.1 2793.7,2200.4 2863.9,2278.8 2896.7,2178.8 2876.3,2183.1 2718.9,1434.2 			"/>
		</g>
	</g>
</g>
<g>
	<g>
		<g>
			<polygon points="2767,1418.8 3136.3,1759.1 3122.1,1774.4 3224.7,1797.5 3193.4,1697 3179.3,1712.4 2810,1372.1 			"/>
		</g>
	</g>
</g>
<g>
	<g>
		<g>
			<polygon points="3306.6,1031.1 3912.8,2229.2 3894.1,2238.6 3982.2,2296.1 3988,2191.1 3969.4,2200.5 3363.2,1002.4 			"/>
		</g>
	</g>
</g>
<g>
	<g>
		<g>
			<polygon points="3382.9,990.5 4147.1,1777.4 4132.1,1792 4233.3,1820.7 4207.6,1718.7 4192.6,1733.2 3428.4,946.3 			"/>
		</g>
	</g>
</g>
<g>
	<g>
		<g>
			<polygon points="3436.1,905.3 4264.6,1299.6 4255.7,1318.4 4360.5,1310.1 4300.9,1223.4 4291.9,1242.3 3463.4,848 			"/>
		</g>
	</g>
</g>
<circle class="st0" cx="581.2" cy="2727.4" r="153.1"/>
<circle class="st0" cx="479.6" cy="1944.7" r="153.1"/>
<circle class="st0" cx="1004.7" cy="2480.6" r="153.1"/>
<circle class="st0" cx="1310.9" cy="2941.4" r="153.1"/>
<circle class="st0" cx="1656.4" cy="3342" r="153.1"/>
<g>
	<g>
		<g>
			<polygon points="875.6,1525.2 678.3,1706.6 664.2,1691.2 632.8,1791.6 735.4,1768.7 721.3,1753.3 918.6,1571.9 			"/>
		</g>
	</g>
</g>
<g>
	<g>
		<g>
			<polygon points="940.5,1585.5 634.3,2422.5 614.7,2415.3 632.8,2518.9 713.5,2451.4 693.9,2444.3 1000.1,1607.3 			"/>
		</g>
	</g>
</g>
<g>
	<g>
		<g>
			<polygon points="1018.6,1610.2 979.2,2187.8 958.4,2186.3 1004.7,2280.8 1063.4,2193.5 1042.5,2192.1 1081.9,1614.5 			"/>
		</g>
	</g>
</g>
<g>
	<g>
		<g>
			<polygon points="1515.6,1939.3 1352.3,2631.4 1332,2626.6 1362.3,2727.4 1434.4,2650.8 1414.1,2646 1577.4,1953.9 			"/>
		</g>
	</g>
</g>
<g>
	<g>
		<g>
			<polygon points="1597.2,1970.9 1622.6,3035.8 1601.7,3036.3 1656.4,3126.2 1706.9,3033.8 1686,3034.3 1660.7,1969.4 			"/>
		</g>
	</g>
</g>
<circle class="st0" cx="2013.3" cy="3019.2" r="153.1"/>
<g>
	<g>
		<g>
			<polygon points="1919.8,2516.5 1944.6,2739.8 1923.9,2742.1 1986.2,2826.8 2028.4,2730.5 2007.7,2732.8 1982.8,2509.5 			"/>
		</g>
	</g>
</g>
<g>
	<g>
		<g>
			<polygon points="3012.1,2687.9 3147,2884.3 3129.8,2896.1 3224.7,2941.4 3216.5,2836.6 3199.3,2848.4 3064.4,2651.9 			"/>
		</g>
	</g>
</g>
<circle class="st0" cx="3335.7" cy="3103" r="153.1"/>
<g>
	<g>
		<g>
			<polygon points="3386,2151 3437.9,2380.7 3417.5,2385.3 3488.9,2462.5 3520.1,2362.1 3499.8,2366.7 3447.9,2137 			"/>
		</g>
	</g>
</g>
<circle class="st0" cx="3523.4" cy="2648.5" r="153.1"/>
<g>
	<g>
		<g>
			<polygon points="4068.3,2672.2 4110.9,3008.2 4090.2,3010.8 4153.9,3094.6 4194.6,2997.6 4173.9,3000.2 4131.2,2664.2 			"/>
		</g>
	</g>
</g>
<circle class="st0" cx="4180.5" cy="3276.4" r="153.1"/>
<g>
	<g>
		<g>
			<polygon points="3413.5,3288.4 3639.6,3573.3 3623.3,3586.3 3721.1,3625 3705.7,3520.9 3689.3,3533.9 3463.2,3248.9 			"/>
		</g>
	</g>
</g>
<circle class="st0" cx="3874.2" cy="3754.8" r="153.1"/>
<circle class="st0" cx="1067.3" cy="3855" r="153.1"/>
<g>
	<g>
		<g>
			<polygon points="1470,3434.1 1266.8,3617.3 1252.8,3601.8 1220.4,3701.9 1323.3,3679.9 1309.3,3664.4 1512.5,3481.2 			"/>
		</g>
	</g>
</g>
<g>
	<g>
		<g>
			<polygon points="1078.3,3005.2 911,3112.9 899.7,3095.3 851.6,3188.9 956.6,3183.8 945.3,3166.2 1112.6,3058.6 			"/>
		</g>
	</g>
</g>
<circle class="st0" cx="690.8" cy="3292.3" r="153.1"/>
<circle class="st0" cx="581.2" cy="4011.5" r="153.1"/>
<g>
	<g>
		<g>
			<polygon points="1154.4,3092.5 716,3734.6 698.8,3722.8 690.8,3827.7 785.7,3782.1 768.4,3770.3 1206.8,3128.3 			"/>
		</g>
	</g>
</g>
<g>
	<g>
		<g>
			<polygon points="4416.4,2168.7 4577.3,2521.4 4558.3,2530.1 4644,2591.1 4654.1,2486.4 4635.1,2495.1 4474.1,2142.3 			"/>
		</g>
	</g>
</g>
<circle class="st0" cx="4730.2" cy="2771.1" r="153.1"/>
<g>
	<g>
		<g>
			<polygon points="4654.4,2974.2 4654.8,3263.9 4633.9,3263.9 4686.7,3355 4739.2,3263.8 4718.3,3263.8 4717.8,2974.1 			"/>
		</g>
	</g>
</g>
<circle class="st0" cx="4686.7" cy="3582.5" r="153.1"/>
<g>
	<g>
		<g>
			<polygon points="4552.1,3746.6 4402.1,4022.5 4383.7,4012.5 4386.5,4117.7 4476.2,4062.8 4457.9,4052.8 4607.8,3776.9 			"/>
		</g>
	</g>
</g>
<circle class="st0" cx="4306.3" cy="4294.4" r="153.1"/>
<g>
	<g>
		<g>
			<polygon points="4689.7,3782.2 4738.1,4099.3 4717.5,4102.4 4783.2,4184.5 4821.5,4086.5 4800.8,4089.7 4752.4,3772.6 			"/>
		</g>
	</g>
</g>
<circle class="st0" cx="4812" cy="4373" r="153.1"/>
<circle class="st0" cx="1157.8" cy="4563.8" r="153.1"/>
<g>
	<g>
		<g>
			<polygon points="1064.3,4061.1 1089.1,4284.4 1068.4,4286.7 1130.7,4371.4 1173,4275 1152.2,4277.3 1127.4,4054.1 			"/>
		</g>
	</g>
</g>
<circle class="st0" cx="844" cy="4943.1" r="153.1"/>
<g>
	<g>
		<g>
			<polygon points="612.9,4209.7 726.3,4656 706.1,4661.1 779.5,4736.5 808,4635.2 787.8,4640.4 674.4,4194.1 			"/>
		</g>
	</g>
</g>
<g>
	<g>
		<g>
			<polygon points="475.2,4186.8 424.6,4351.1 404.6,4345 428.1,4447.5 505.2,4375.9 485.2,4369.8 535.8,4205.4 			"/>
		</g>
	</g>
</g>
<circle class="st0" cx="373.1" cy="4636.9" r="153.1"/>
<g>
	<g>
		<g>
			<polygon points="1345.3,4666.8 1582,4750.1 1575.1,4769.8 1678.5,4750.4 1610,4670.6 1603.1,4690.3 1366.4,4607 			"/>
		</g>
	</g>
</g>
<circle class="st0" cx="1860.2" cy="4815.6" r="153.1"/>
<circle class="st0" cx="3874.2" cy="4846.8" r="153.1"/>
<circle class="st0" cx="4380.5" cy="4968.7" r="153.1"/>
<circle class="st0" cx="4723.1" cy="5319" r="153.1"/>
<g>
	<g>
		<g>
			<polygon points="4152.3,4428.6 4023.8,4601.6 4007.1,4589.2 3995,4693.7 4091.5,4651.9 4074.8,4639.4 4203.2,4466.4 			"/>
		</g>
	</g>
</g>
<g>
	<g>
		<g>
			<polygon points="4673.6,4528 4530.1,4723.4 4513.3,4711 4501.8,4815.6 4598.1,4773.3 4581.3,4760.9 4724.8,4565.5 			"/>
		</g>
	</g>
</g>
<g>
	<g>
		<g>
			<polygon points="4764.7,4575.2 4727.7,5039.7 4706.9,5038.1 4752.1,5133 4811.8,5046.4 4791,5044.7 4827.9,4580.3 			"/>
		</g>
	</g>
</g>
<g>
	<g>
		<g>
			<polygon points="3675.9,4840.7 3462.8,4883.1 3458.7,4862.6 3379.7,4932 3479.3,4965.8 3475.2,4945.3 3688.3,4902.9 			"/>
		</g>
	</g>
</g>
<circle class="st0" cx="3194.7" cy="4981.5" r="153.1"/>
<circle class="st0" cx="1508.9" cy="5249.4" r="153.1"/>
<g>
	<g>
		<g>
			<polygon points="1222,4762 1341.2,4996.6 1322.6,5006.1 1410.7,5063.5 1416.4,4958.4 1397.8,4967.9 1278.6,4733.2 			"/>
		</g>
	</g>
</g>
<circle class="st0" cx="2448.5" cy="5249.4" r="153.1"/>
<g>
	<g>
		<g>
			<polygon points="1993.8,4957 2196,5115.2 2183.2,5131.6 2287.3,5146.3 2248,5048.7 2235.1,5065.2 2032.8,4907 			"/>
		</g>
	</g>
</g>
<circle class="st0" cx="2065.9" cy="5588" r="153.1"/>
<g>
	<g>
		<g>
			<polygon points="1870.6,5007.8 1951.2,5322.1 1931,5327.3 2004.6,5402.5 2032.9,5301.2 2012.7,5306.4 1932.1,4992 			"/>
		</g>
	</g>
</g>
<circle class="st0" cx="3500.9" cy="5472.1" r="153.1"/>
<circle class="st0" cx="3041.5" cy="5555.6" r="153.1"/>
<circle class="st0" cx="3883" cy="5708.7" r="153.1"/>
<circle class="st0" cx="4265.1" cy="5555.6" r="153.1"/>
<circle class="st0" cx="4658.9" cy="6015" r="153.1"/>
<g>
	<g>
		<g>
			<polygon points="3113.9,5158 3081.7,5284.4 3061.4,5279.3 3089.9,5380.6 3163.4,5305.3 3143.1,5300.1 3175.4,5173.7 			"/>
		</g>
	</g>
</g>
<g>
	<g>
		<g>
			<polygon points="3274.5,5162.9 3327.3,5245 3331.4,5251.5 3313.9,5262.8 3407.3,5311 3402.4,5205.9 3384.8,5217.2 3380.7,5210.7 
				3327.9,5128.6 			"/>
		</g>
	</g>
</g>
<g>
	<g>
		<g>
			<polygon points="3832.4,5039.5 3836.1,5421.4 3815.2,5421.6 3868.7,5512.2 3920.4,5420.6 3899.6,5420.8 3895.8,5038.9 			"/>
		</g>
	</g>
</g>
<g>
	<g>
		<g>
			<polygon points="3945.8,5027.7 4084.4,5308.1 4065.7,5317.4 4153.2,5375.7 4160,5270.7 4141.3,5280 4002.7,4999.6 			"/>
		</g>
	</g>
</g>
<g>
	<g>
		<g>
			<polygon points="4674.7,5500.1 4651.5,5741.6 4630.7,5739.6 4674.3,5835.4 4735.4,5749.7 4714.7,5747.7 4737.9,5506.2 			"/>
		</g>
	</g>
</g>
<circle class="st0" cx="2644.3" cy="5838.5" r="153.1"/>
<g>
	<g>
		<g>
			<polygon points="2471.9,5433.9 2525.6,5586.3 2505.9,5593.2 2585.8,5661.7 2605.2,5558.3 2585.5,5565.2 2531.8,5412.9 			"/>
		</g>
	</g>
</g>
<circle class="st0" cx="3619.1" cy="6067.5" r="153.1"/>
<circle class="st0" cx="3006.6" cy="6103.1" r="153.1"/>
<g>
	<g>
		<g>
			<polygon points="3347,5595.8 3162.4,5857.3 3145.4,5845.2 3135.8,5950 3231.3,5905.9 3214.3,5893.9 3398.9,5632.4 			"/>
		</g>
	</g>
</g>
<g>
	<g>
		<g>
			<polygon points="3509.3,5653.3 3536.8,5808 3516.2,5811.6 3584,5892.1 3619.8,5793.2 3599.3,5796.8 3571.7,5642.2 			"/>
		</g>
	</g>
</g>
<circle class="st0" cx="1325.9" cy="5646.4" r="153.1"/>
<g>
	<g>
		<g>
			<polygon points="929.7,5124.9 1136.3,5435.1 1118.9,5446.7 1213.2,5493.3 1206.5,5388.3 1189.1,5399.9 982.5,5089.8 			"/>
		</g>
	</g>
</g>
<circle class="st0" cx="216" cy="5220" r="153.1"/>
<g>
	<g>
		<g>
			<polygon points="643,4992.5 468.2,5076.3 459.2,5057.5 399.8,5144.3 504.7,5152.3 495.6,5133.5 670.4,5049.7 			"/>
		</g>
	</g>
</g>
<circle class="st0" cx="488.9" cy="5668.9" r="153.1"/>
<g>
	<g>
		<g>
			<polygon points="728.8,5118.8 590.3,5407.3 571.5,5398.3 579.5,5503.2 666.4,5443.8 647.5,5434.8 786,5146.3 			"/>
		</g>
	</g>
</g>
<circle class="st0" cx="1714.2" cy="6067.5" r="153.1"/>
<g>
	<g>
		<g>
			<polygon points="1915.3,5727.7 1843.9,5828.9 1826.8,5816.9 1817.2,5921.6 1912.8,5877.5 1895.7,5865.5 1967.2,5764.3 			"/>
		</g>
	</g>
</g>
<circle class="st0" cx="1019.7" cy="6021.3" r="153.1"/>
<g>
	<g>
		<g>
			<polygon points="632.7,5796.3 773.2,5890.2 761.6,5907.5 866.6,5914.4 820.1,5820 808.5,5837.4 668,5743.5 			"/>
		</g>
	</g>
</g>
<g>
	<g>
		<path class="st1" d="M4033.6,4233.5v94.4c0,57.2-205,103.6-457.8,103.6s-457.8-46.4-457.8-103.6v-94.4"/>
		<ellipse class="st1" cx="3575.8" cy="4233.5" rx="457.8" ry="103.6"/>
	</g>
	<g>
		<g id="XMLID_14_">
			<g>
				<path d="M3604.5,4256.8h-70c-72.8,0-132-14.5-132-32.3v-48.9c0-17.8,59.2-32.3,132-32.3h82.4c72.8,0,132,14.5,132,32.3v19.5h-75
					v-19.5c0-7.7-25.6-14-57-14h-82.4c-31.4,0-57,6.3-57,14v48.9c0,7.7,25.6,14,57,14h70V4256.8z"/>
			</g>
		</g>
		<g id="XMLID_13_">
			<g>
				<path d="M3617,4323h-82.4c-72.8,0-132-14.5-132-32.3v-19.5h75v19.5c0,7.7,25.6,14,57,14h82.4c31.4,0,57-6.3,57-14v-48.9
					c0-7.7-25.6-14-57-14h-70v-18.4h70c72.8,0,132,14.5,132,32.3v48.9C3748.9,4308.4,3689.7,4323,3617,4323z"/>
			</g>
		</g>
	</g>
</g>
<g>
	<g>
		<path class="st1" d="M3117.9,4233.5v94.4c0,57.2-205,103.6-457.8,103.6s-457.8-46.4-457.8-103.6v-94.4"/>
		<ellipse class="st1" cx="2660.1" cy="4233.5" rx="457.8" ry="103.6"/>
	</g>
	<g>
		<g id="XMLID_10_">
			<g>
				<path d="M2688.9,4256.8h-70c-72.8,0-132-14.5-132-32.3v-48.9c0-17.8,59.2-32.3,132-32.3h82.4c72.8,0,132,14.5,132,32.3v19.5h-75
					v-19.5c0-7.7-25.6-14-57-14h-82.4c-31.4,0-57,6.3-57,14v48.9c0,7.7,25.6,14,57,14h70V4256.8z"/>
			</g>
		</g>
		<g id="XMLID_9_">
			<g>
				<path d="M2701.3,4323h-82.4c-72.8,0-132-14.5-132-32.3v-19.5h75v19.5c0,7.7,25.6,14,57,14h82.4c31.4,0,57-6.3,57-14v-48.9
					c0-7.7-25.6-14-57-14h-70v-18.4h70c72.8,0,132,14.5,132,32.3v48.9C2833.3,4308.4,2774.1,4323,2701.3,4323z"/>
			</g>
		</g>
	</g>
</g>
<g>
	<g>
		<path class="st1" d="M2202.2,4234.8v94.4c0,57.2-205,103.6-457.8,103.6s-457.8-46.4-457.8-103.6v-94.4"/>
		<ellipse class="st1" cx="1744.4" cy="4234.8" rx="457.8" ry="103.6"/>
	</g>
	<g>
		<g id="XMLID_12_">
			<g>
				<path d="M1773.2,4258.1h-70c-72.8,0-132-14.5-132-32.3v-48.9c0-17.8,59.2-32.3,132-32.3h82.4c72.8,0,132,14.5,132,32.3v19.5h-75
					v-19.5c0-7.7-25.6-14-57-14h-82.4c-31.4,0-57,6.3-57,14v48.9c0,7.7,25.6,14,57,14h70V4258.1z"/>
			</g>
		</g>
		<g id="XMLID_11_">
			<g>
				<path d="M1785.6,4324.3h-82.4c-72.8,0-132-14.5-132-32.3v-19.5h75v19.5c0,7.7,25.6,14,57,14h82.4c31.4,0,57-6.3,57-14V4243
					c0-7.7-25.6-14-57-14h-70v-18.4h70c72.8,0,132,14.5,132,32.3v48.9C1917.6,4309.8,1858.4,4324.3,1785.6,4324.3z"/>
			</g>
		</g>
	</g>
</g>
<g>
	<g>
		<path class="st1" d="M3575.8,4106.6v94.4c0,57.2-205,103.6-457.8,103.6s-457.8-46.4-457.8-103.6v-94.4"/>
		<ellipse class="st1" cx="3117.9" cy="4106.6" rx="457.8" ry="103.6"/>
	</g>
	<g>
		<g id="XMLID_8_">
			<g>
				<path d="M3146.7,4129.9h-70c-72.8,0-132-14.5-132-32.3v-48.9c0-17.8,59.2-32.3,132-32.3h82.4c72.8,0,132,14.5,132,32.3v19.5h-75
					v-19.5c0-7.7-25.6-14-57-14h-82.4c-31.4,0-57,6.3-57,14v48.9c0,7.7,25.6,14,57,14h70V4129.9z"/>
			</g>
		</g>
		<g id="XMLID_6_">
			<g>
				<path d="M3159.1,4196.1h-82.4c-72.8,0-132-14.5-132-32.3v-19.5h75v19.5c0,7.7,25.6,14,57,14h82.4c31.4,0,57-6.3,57-14v-48.9
					c0-7.7-25.6-14-57-14h-70v-18.4h70c72.8,0,132,14.5,132,32.3v48.9C3291.1,4181.6,3231.9,4196.1,3159.1,4196.1z"/>
			</g>
		</g>
	</g>
</g>
<g>
	<g>
		<path class="st1" d="M2660.1,4106.6v94.4c0,57.2-205,103.6-457.8,103.6s-457.8-46.4-457.8-103.6v-94.4"/>
		<ellipse class="st1" cx="2202.2" cy="4106.6" rx="457.8" ry="103.6"/>
	</g>
	<g>
		<g id="XMLID_5_">
			<g>
				<path d="M2231,4129.9h-70c-72.8,0-132-14.5-132-32.3v-48.9c0-17.8,59.2-32.3,132-32.3h82.4c72.8,0,132,14.5,132,32.3v19.5h-75
					v-19.5c0-7.7-25.6-14-57-14H2161c-31.4,0-57,6.3-57,14v48.9c0,7.7,25.6,14,57,14h70V4129.9z"/>
			</g>
		</g>
		<g id="XMLID_4_">
			<g>
				<path d="M2243.4,4196.1H2161c-72.8,0-132-14.5-132-32.3v-19.5h75v19.5c0,7.7,25.6,14,57,14h82.4c31.4,0,57-6.3,57-14v-48.9
					c0-7.7-25.6-14-57-14h-70v-18.4h70c72.8,0,132,14.5,132,32.3v48.9C2375.4,4181.6,2316.2,4196.1,2243.4,4196.1z"/>
			</g>
		</g>
	</g>
</g>
<g>
	<path class="st1" d="M2691,2956.2c233.1,0,422.1,189,422.1,422.1c0,233.1-189,422.1-422.1,422.1"/>
	<circle class="st1" cx="2667.8" cy="3378.3" r="422.1"/>
	<g>
		<g id="XMLID_1_">
			<g>
			</g>
			<g>
				<path class="st2" d="M2696.6,3437.5h-70c-52.2,0-94.5-42.3-94.5-94.5v-199.4c0-52.2,42.3-94.5,94.5-94.5h82.4
					c52.2,0,94.5,42.3,94.5,94.5v79.4"/>
			</g>
		</g>
		<g id="XMLID_7_">
			<g>
			</g>
			<g>
				<path class="st2" d="M2639.1,3319.1h70c52.2,0,94.5,42.3,94.5,94.5V3613c0,52.2-42.3,94.5-94.5,94.5h-82.4
					c-52.2,0-94.5-42.3-94.5-94.5v-79.4"/>
			</g>
		</g>
	</g>
	<line class="st3" x1="2667.8" y1="2956.2" x2="2691" y2="2956.2"/>
	<line class="st3" x1="2667.8" y1="3800.4" x2="2691" y2="3800.4"/>
</g>
<g>
	<g>
		<path class="st1" d="M3117.9,3979.7v94.4c0,57.2-205,103.6-457.8,103.6s-457.8-46.4-457.8-103.6v-94.4"/>
		<ellipse class="st1" cx="2660.1" cy="3979.7" rx="457.8" ry="103.6"/>
	</g>
	<g>
		<g id="XMLID_3_">
			<g>
				<path d="M2688.9,4003h-70c-72.8,0-132-14.5-132-32.3v-48.9c0-17.8,59.2-32.3,132-32.3h82.4c72.8,0,132,14.5,132,32.3v19.5h-75
					v-19.5c0-7.7-25.6-14-57-14h-82.4c-31.4,0-57,6.3-57,14v48.9c0,7.7,25.6,14,57,14h70V4003z"/>
			</g>
		</g>
		<g id="XMLID_2_">
			<g>
				<path d="M2701.3,4069.2h-82.4c-72.8,0-132-14.5-132-32.3v-19.5h75v19.5c0,7.7,25.6,14,57,14h82.4c31.4,0,57-6.3,57-14V3988
					c0-7.7-25.6-14-57-14h-70v-18.4h70c72.8,0,132,14.5,132,32.3v48.9C2833.3,4054.7,2774.1,4069.2,2701.3,4069.2z"/>
			</g>
		</g>
	</g>
</g>
</svg>
