<?xml version="1.0" encoding="utf-8"?>
<!-- Generator: Adobe Illustrator 19.2.0, SVG Export Plug-In . SVG Version: 6.00 Build 0)  -->
<svg version="1.1" id="Layer_1" xmlns="http://www.w3.org/2000/svg" xmlns:xlink="http://www.w3.org/1999/xlink" x="0px" y="0px"
	 viewBox="0 0 602.3 602.3" style="enable-background:new 0 0 602.3 602.3;" xml:space="preserve">
<style type="text/css">
	.st0{fill:#ABABAB;}
	.st1{fill:#FFFFFF;}
	.st2{fill:#5D5E5E;}
</style>
<g>
	<g>
		<circle class="st0" cx="301.2" cy="301.2" r="301.2"/>
	</g>
</g>
<ellipse class="st1" cx="248.3" cy="203.1" rx="164.2" ry="113.8"/>
<ellipse class="st1" cx="346.1" cy="187.4" rx="164.2" ry="113.8"/>
<ellipse class="st1" cx="213.4" cy="310.6" rx="164.2" ry="113.8"/>
<ellipse class="st1" cx="383" cy="399.2" rx="136.6" ry="98"/>
<ellipse class="st1" cx="265.1" cy="414.9" rx="147.4" ry="113.8"/>
<ellipse class="st1" cx="412.5" cy="285.4" rx="164.2" ry="113.8"/>
<g>
	<path class="st2" d="M293,383.4c-8.6,0-15.8-2.2-21.7-6.7c-5.9-4.4-8.9-11.8-8.9-22c0-5.3,1.1-11.8,3.2-19.5
		c2.1-7.7,5.2-16,9.1-24.7c3.9-8.7,8.9-17.4,14.8-26.2c5.9-8.7,12.8-16.9,20.7-24.4c5.9-5.9,10.9-11.4,15.1-16.3
		c4.1-4.9,7.3-9.6,9.6-14.1c2.3-4.4,3.9-8.9,4.9-13.3c1-4.4,1.5-9.5,1.5-15.1c0-13.5-3.8-22.6-11.4-27.4c-7.6-4.8-16.6-7-27.1-6.7
		c-10.5,0.3-19.9,2.5-28.1,6.4c-8.2,3.9-12.3,10.2-12.3,18.8c0,8.6-3.8,15-11.4,19.3c-7.6,4.3-15.3,6.4-23.2,6.4
		c-9.9-0.3-17-2.6-21.2-6.9c-4.3-4.3-6.4-10.5-6.4-18.8c0-11.5,2.7-22.1,8.1-31.8c5.4-9.7,12.8-18,22.2-24.9
		c9.4-6.9,20.4-12.4,33.1-16.5c12.7-4.1,26.2-6.3,40.7-6.7c14.1-0.3,27.3,1.4,39.5,5.2c12.2,3.8,22.6,9.6,31.3,17.5
		c8.7,7.9,15.5,17.6,20.2,29.1c4.8,11.5,7,24.8,6.7,40c-0.3,13.2-2.9,25.6-7.7,37.3c-4.8,11.7-14.2,24.3-28.4,37.8
		c-9.5,9.2-17.1,17.2-22.7,23.9c-5.6,6.7-9.9,12.8-12.8,18.3c-3,5.4-4.9,10.8-5.7,16c-0.8,5.3-1.2,11-1.2,17.3
		c0,9.5-3,16.7-8.9,21.5C308.8,381,301.6,383.4,293,383.4z M293,490c9.5,0,17.5-3.2,23.9-9.6c6.4-6.4,9.6-14.4,9.6-23.9
		c0-9.5-3.2-17.5-9.6-23.9c-6.4-6.4-14.4-9.6-23.9-9.6c-9.5,0-17.5,3.2-23.9,9.6c-6.4,6.4-9.6,14.4-9.6,23.9
		c0,9.5,3.2,17.5,9.6,23.9C275.5,486.8,283.5,490,293,490z"/>
</g>
</svg>
