<?xml version="1.0" encoding="utf-8"?>
<!-- Generator: Adobe Illustrator 19.2.0, SVG Export Plug-In . SVG Version: 6.00 Build 0)  -->
<svg version="1.1" id="Layer_1" xmlns="http://www.w3.org/2000/svg" xmlns:xlink="http://www.w3.org/1999/xlink" x="0px" y="0px"
	 viewBox="0 0 541.2 541.2" style="enable-background:new 0 0 541.2 541.2;" xml:space="preserve">
<style type="text/css">
	.st0{fill:#A7A9AC;}
	.st1{fill:#CCCCCC;}
	.st2{fill:#727373;}
	.st3{fill:#EAEAEA;}
	.st4{fill:#C4C4C3;}
	.st5{fill:#545554;}
	.st6{fill:#D3D3D3;}
	.st7{fill:#969696;}
	.st8{fill:#B2B1B2;}
	.st9{fill:#E2E2E2;}
</style>
<g id="XMLID_1_">
	<path class="st0" d="M399.2,425.1c4,0,7.7-1.6,10.4-4.2c3,2.4,6.8,3.9,10.9,4.1c-3.9-3.9-6.2-9.2-6.2-15.1c0-6.3-3.9-11.7-9.4-14
		c-1.8-0.7-3.7-1.1-5.7-1.1H216.7c-4.2,0-8,1.7-10.7,4.4c-2.7,2.7-4.4,6.5-4.4,10.7c0,8.3,6.8,15.1,15.1,15.1h161.1H399.2z"/>
</g>
<g id="XMLID_2_">
	<path class="st1" d="M260.8,381.8c3.9-1.1,7-3.6,8.9-6.8c3.6,1.5,7.6,1.9,11.6,1c-4.7-2.7-8.5-7.2-10.1-12.9
		c-1.7-6.1-6.9-10.3-12.8-11c-1.9-0.2-3.9-0.1-5.8,0.4L99.3,395.4c-4,1.1-7.2,3.8-9.1,7.1c-1.9,3.4-2.5,7.5-1.4,11.5
		c2.2,8,10.6,12.8,18.6,10.5l132.9-37L260.8,381.8z"/>
</g>
<g id="XMLID_3_">
	<path class="st2" d="M353.8,387.9c-0.1,0-0.2-0.1-0.4-0.1l-106.5-40.6c-7.8-3-11.7-11.7-8.7-19.5c1.5-3.9,4.4-6.8,7.9-8.4
		c3.5-1.6,7.7-1.8,11.6-0.3l106.5,40.6c1.9,0.7,3.6,1.8,4.9,3.1c4.3,4.1,6,10.5,3.8,16.4l0,0c-2.1,5.5-1.8,11.3,0.5,16.3
		c-3.8-1.7-6.8-4.4-8.7-7.8C361.3,388.9,357.4,389.2,353.8,387.9z"/>
</g>
<g id="XMLID_4_">
	<path class="st3" d="M451.7,413.8c3.4,2.1,7.4,2.7,11,2c1.3,3.6,3.7,6.9,7.1,9.3c-1.2-5.3-0.4-11.1,2.7-16.1l0,0
		c3.4-5.4,2.9-12-0.5-16.8c-1.1-1.6-2.5-2.9-4.2-4l-88-55.1c-3.5-2.2-7.6-2.8-11.4-1.9c-3.8,0.9-7.2,3.2-9.4,6.7
		c-4.4,7.1-2.3,16.4,4.8,20.8l69.9,43.7L451.7,413.8z"/>
</g>
<g id="XMLID_5_">
	<path class="st4" d="M391.7,332.6c4,0.4,7.8-0.7,10.8-3c2.8,2.7,6.4,4.6,10.4,5.3c-3.4-4.2-5.2-9.7-4.6-15.5c0-0.1,0-0.1,0-0.2
		c0-0.1,0-0.1,0-0.2c0.6-6.2-2.7-11.9-7.9-14.7c-1.7-0.9-3.5-1.5-5.6-1.7l-158.4-17.2c-4.2-0.5-8.1,0.8-11.1,3.2
		c-3,2.4-5.1,6-5.6,10.1c-0.9,8.3,5.1,15.8,13.4,16.7l137.1,14.9L391.7,332.6z"/>
</g>
<g id="XMLID_6_">
	<path class="st2" d="M231.6,278.2c2.3-3.3,3-7.3,2.4-11c3.7-1.2,7.1-3.4,9.6-6.7c-5.3,1-11,0-15.8-3.2c0,0-0.1-0.1-0.2-0.1
		c0,0-0.1-0.1-0.2-0.1c-5.2-3.4-11.8-3.2-16.7,0c-1.6,1.1-3,2.4-4.1,4.1l-64,94.3c-2.3,3.5-3.1,7.5-2.3,11.3
		c0.7,3.8,2.9,7.3,6.3,9.7c6.9,4.7,16.3,2.9,21-4l52-76.6L231.6,278.2z"/>
</g>
<g id="XMLID_7_">
	<path class="st0" d="M16.6,397.6c-3.1,2.6-4.9,6.1-5.4,9.9c-3.9,0.1-7.7,1.3-11.1,3.8c5.4,0.5,10.7,3.1,14.4,7.6
		c4,4.9,10.5,6.6,16.1,4.8c1.8-0.6,3.6-1.5,5.1-2.8l140.7-116.2c3.2-2.7,5.1-6.4,5.4-10.2c0.4-3.8-0.7-7.8-3.4-11.1
		c-5.3-6.4-14.8-7.3-21.3-2L33,384L16.6,397.6z"/>
</g>
<g id="XMLID_8_">
	<path class="st1" d="M301.2,285.8c3.7,1.6,7.7,1.6,11.2,0.3c1.8,3.4,4.7,6.3,8.4,8.2c-2-5-2.1-10.8,0.2-16.1c0-0.1,0-0.1,0.1-0.2
		s0.1-0.1,0.1-0.2c2.4-5.8,1-12.2-3.1-16.4c-1.3-1.4-2.9-2.5-4.8-3.3l-54.9-24c-3.8-1.7-8-1.6-11.6-0.2c-3.6,1.4-6.7,4.2-8.3,8
		c-3.3,7.6,0.2,16.6,7.8,19.9l35.4,15.4L301.2,285.8z"/>
</g>
<g id="XMLID_9_">
	<path class="st1" d="M353.3,211.2c-2.8-2.9-6.5-4.4-10.3-4.5c-0.4-3.9-2-7.6-4.7-10.7c-0.1,5.4-2.1,10.8-6.3,14.9
		c0,0-0.1,0.1-0.1,0.1c0,0-0.1,0.1-0.1,0.1c-4.4,4.4-5.5,10.9-3.3,16.4c0.7,1.8,1.8,3.4,3.2,4.9l183.5,187.3c2.9,3,6.8,4.5,10.6,4.5
		c3.9,0,7.8-1.4,10.7-4.3c6-5.8,6.1-15.4,0.2-21.4l-168.6-172L353.3,211.2z"/>
</g>
<g id="XMLID_10_">
	<path class="st2" d="M345.5,192.8c3.7-1.5,6.5-4.4,8.1-7.8c3.7,1.1,7.8,1,11.7-0.3c-5-2.1-9.2-6-11.4-11.4c0-0.1,0-0.1-0.1-0.2
		c0-0.1,0-0.1-0.1-0.2c-2.4-5.7-8-9.2-13.9-9.2c-1.9,0-3.9,0.4-5.7,1.1l-129.4,53c-3.9,1.6-6.7,4.6-8.2,8.1
		c-1.5,3.6-1.6,7.7-0.1,11.6c3.2,7.7,12,11.4,19.7,8.3l109.7-44.9L345.5,192.8z"/>
</g>
<g id="XMLID_11_">
	<path class="st1" d="M88.1,265.2c-3.9,0.9-7.1,3.3-9.2,6.5c-3.5-1.6-7.5-2.2-11.6-1.5c4.6,2.8,8.1,7.4,9.5,13c0,0.1,0,0.1,0,0.2
		c0,0.1,0,0.1,0,0.2c1.5,6.1,6.5,10.3,12.3,11.3c1.9,0.3,3.8,0.2,5.8-0.2l101-23.9c4.1-1,7.3-3.5,9.4-6.8c2-3.3,2.8-7.4,1.8-11.4
		c-1.9-8.1-10.1-13.1-18.2-11.2l-80.2,19L88.1,265.2z"/>
</g>
<g id="XMLID_12_">
	<path class="st5" d="M110,320.4c3.1-2.6,4.9-6.1,5.4-9.9c3.9-0.1,7.8-1.3,11.1-3.8c-5.4-0.5-10.7-3.1-14.4-7.6
		c-4-4.9-10.5-6.6-16.1-4.8c-1.8,0.6-3.6,1.5-5.1,2.8l-17.4,14.4c-3.2,2.7-5.1,6.4-5.4,10.2c-0.4,3.9,0.7,7.8,3.4,11.1
		c5.3,6.4,14.9,7.3,21.3,2l0.9-0.8L110,320.4z"/>
</g>
<g id="XMLID_13_">
	<path class="st6" d="M119.6,227c-3.6,1.8-6.1,4.9-7.4,8.4c-3.8-0.8-7.9-0.4-11.6,1.3c5.2,1.7,9.7,5.4,12.4,10.6
		c2.9,5.6,8.8,8.7,14.7,8.2c1.9-0.1,3.8-0.7,5.6-1.6l92.5-47c3.7-1.9,6.3-5.1,7.5-8.8c1.2-3.7,1-7.8-0.9-11.5
		c-3.8-7.4-12.9-10.4-20.3-6.6l-73.5,37.3L119.6,227z"/>
</g>
<g id="XMLID_14_">
	<path class="st7" d="M340.6,284.3c2.9,2.8,6.7,4.1,10.5,4.1c0.6,3.8,2.3,7.5,5.1,10.5c-0.2-5.4,1.7-11,5.8-15.3
		c4.3-4.6,5.2-11.2,2.7-16.6c-0.8-1.7-1.9-3.4-3.4-4.7l-16.5-15.4c-3-2.9-7-4.2-10.8-4.1c-3.9,0.1-7.7,1.7-10.5,4.8
		c-5.7,6.1-5.4,15.7,0.7,21.4l0.9,0.8L340.6,284.3z"/>
</g>
<g id="XMLID_15_">
	<path class="st8" d="M257.6,184.8c4,0.6,7.9-0.3,10.9-2.5c2.6,2.8,6.1,4.9,10.2,5.8c-3.2-4.4-4.7-10.1-3.8-15.9
		c1-6.3-2-12.2-7.1-15.3c-1.6-1-3.5-1.7-5.5-2l-59.2-9.5c-4.1-0.7-8.1,0.4-11.3,2.7c-3.1,2.3-5.4,5.7-6.1,9.9
		c-1.3,8.2,4.3,16,12.5,17.3l38.1,6.1L257.6,184.8z"/>
</g>
<g id="XMLID_16_">
	<path class="st9" d="M366.2,167.1c4,0.5,7.8-0.6,10.9-2.8c2.7,2.8,6.2,4.8,10.3,5.5c-3.3-4.3-5-9.8-4.2-15.6c0-0.1,0-0.1,0-0.2
		c0-0.1,0-0.1,0-0.2c0.7-6.2-2.4-12-7.5-14.9c-1.6-1-3.5-1.6-5.5-1.9l-157.9-20.9c-4.1-0.5-8.1,0.6-11.2,3c-3.1,2.3-5.2,5.9-5.8,10
		c-1.1,8.3,4.7,15.9,13,17l136.8,18.1L366.2,167.1z"/>
</g>
</svg>
