<?xml version="1.0" encoding="utf-8"?>
<!-- Generator: Adobe Illustrator 19.2.0, SVG Export Plug-In . SVG Version: 6.00 Build 0)  -->
<svg version="1.1" id="Layer_1" xmlns="http://www.w3.org/2000/svg" xmlns:xlink="http://www.w3.org/1999/xlink" x="0px" y="0px"
	 viewBox="0 0 602.3 602.3" style="enable-background:new 0 0 602.3 602.3;" xml:space="preserve">
<style type="text/css">
	.st0{fill:#DEDDDD;}
	.st1{fill:#FFFFFF;}
	.st2{fill:#ABABAB;}
	.st3{fill:#5D5E5E;}
</style>
<g id="XMLID_1_">
	<path class="st0" d="M477.3,229v316.4c-49.5,35.8-110.4,56.8-176.1,56.8S174.6,581.2,125,545.5V229H477.3z"/>
	<path class="st1" d="M513.1,173.3v341.8c-11.1,11-23.1,21.2-35.8,30.3V229H125v316.4c-12.7-9.2-24.7-19.3-35.8-30.3V173.3
		c0-14.4,11.7-26.1,26.1-26.1H487C501.4,147.3,513.1,158.9,513.1,173.3z"/>
	<path class="st2" d="M301.2,0c166.3,0,301.2,134.8,301.2,301.2c0,83.7-34.1,159.4-89.3,214V173.3c0-14.4-11.7-26.1-26.1-26.1H115.3
		c-14.4,0-26.1,11.7-26.1,26.1v341.8C34.1,460.6,0,384.9,0,301.2C0,134.8,134.8,0,301.2,0z"/>
</g>
<g>
	<path class="st3" d="M294.2,488.6c-7.3,0-13.4-1.9-18.5-5.7c-5-3.8-7.6-10-7.6-18.7c0-4.5,0.9-10,2.7-16.6c1.8-6.6,4.4-13.6,7.8-21
		c3.4-7.4,7.6-14.8,12.6-22.2c5-7.4,10.9-14.3,17.6-20.8c5-5,9.3-9.7,12.8-13.9c3.5-4.2,6.2-8.2,8.2-12c2-3.8,3.4-7.6,4.2-11.3
		c0.8-3.8,1.3-8,1.3-12.8c0-11.5-3.2-19.2-9.7-23.3c-6.4-4.1-14.1-5.9-23.1-5.7c-9,0.3-16.9,2.1-23.9,5.5c-7,3.4-10.5,8.7-10.5,16
		c0,7.3-3.2,12.7-9.7,16.4c-6.4,3.6-13,5.5-19.7,5.5c-8.4-0.3-14.4-2.2-18-5.9c-3.6-3.6-5.5-9-5.5-16c0-9.8,2.3-18.8,6.9-27.1
		c4.6-8.3,10.9-15.3,18.9-21.2c8-5.9,17.3-10.6,28.1-14.1c10.8-3.5,22.3-5.4,34.6-5.7c12-0.3,23.2,1.2,33.6,4.4
		c10.4,3.2,19.2,8.2,26.7,14.9c7.4,6.7,13.2,15,17.2,24.8c4.1,9.8,5.9,21.1,5.7,34c-0.3,11.2-2.5,21.8-6.5,31.7
		c-4.1,9.9-12.1,20.6-24.1,32.1c-8.1,7.8-14.6,14.6-19.3,20.4c-4.8,5.7-8.4,10.9-10.9,15.5c-2.5,4.6-4.1,9.2-4.8,13.6
		c-0.7,4.5-1,9.4-1,14.7c0,8.1-2.5,14.2-7.6,18.3C307.7,486.6,301.5,488.6,294.2,488.6z M294.2,579.3c8.1,0,14.9-2.7,20.4-8.2
		c5.5-5.5,8.2-12.2,8.2-20.4c0-8.1-2.7-14.9-8.2-20.4c-5.5-5.5-12.2-8.2-20.4-8.2c-8.1,0-14.9,2.7-20.4,8.2
		c-5.5,5.5-8.2,12.2-8.2,20.4c0,8.1,2.7,14.9,8.2,20.4C279.3,576.5,286.1,579.3,294.2,579.3z"/>
</g>
</svg>
