<?xml version="1.0" encoding="utf-8"?>
<!-- Generator: Adobe Illustrator 19.2.0, SVG Export Plug-In . SVG Version: 6.00 Build 0)  -->
<svg version="1.1" id="Layer_1" xmlns="http://www.w3.org/2000/svg" xmlns:xlink="http://www.w3.org/1999/xlink" x="0px" y="0px"
	 viewBox="0 0 417.3 417.3" style="enable-background:new 0 0 417.3 417.3;" xml:space="preserve">
<style type="text/css">
	.st0{fill:#557F4B;}
	.st1{fill:#D8BFC6;}
</style>
<circle cx="204.2" cy="163.6" r="43.3"/>
<path d="M260.1,357.8H148.3v-96c0-30.9,25-55.9,55.9-55.9h0c30.9,0,55.9,25,55.9,55.9V357.8z"/>
<rect x="160.9" y="357.8" width="29.2" height="59.4"/>
<rect x="218.3" y="357.8" width="29.2" height="59.4"/>
<rect x="116.6" y="177.1" transform="matrix(0.5984 -0.8012 0.8012 0.5984 -119.405 189.2457)" width="24.8" height="73.3"/>
<rect x="266.4" y="177.1" transform="matrix(-0.5984 -0.8012 0.8012 -0.5984 274.3764 564.9841)" width="24.8" height="73.3"/>
<g>
	<path class="st0" d="M348.2,58c0.7,1.6,1.4,3.2,2.2,4.8l-4.8,2.2c1.8,5,2.1,9.5,0.8,13.6c-1.3,4.1-3.9,7-7.8,8.8l-2.8-6.1
		c2.3-1.3,3.8-3.1,4.5-5.5c0.7-2.4,0.6-5.2-0.3-8.2l-18.5,8.4l0.5,3.2c0.7,4.3,0.4,8-1,11c-1.4,3.1-3.7,5.3-6.9,6.8
		c-3.9,1.8-7.7,1.9-11.4,0.4c-3.7-1.5-6.8-4.4-9.3-8.7l-5,2.3l-2.2-4.8l4.9-2.2c-1.6-4.6-1.8-8.8-0.5-12.7c1.3-3.9,3.9-6.7,7.7-8.6
		l2.7,6c-2.2,1.1-3.7,2.8-4.5,5.1c-0.8,2.3-0.8,4.9,0.1,7.6l17.4-7.9l-0.6-3.4c-0.8-4.9-0.6-8.9,0.7-12c1.3-3.1,3.7-5.4,7.3-7.1
		c4.2-1.9,8.2-2.1,12-0.4c3.8,1.6,7.1,4.9,9.7,9.7L348.2,58z M315.3,86.4c0.7-2.1,0.8-4.7,0.1-7.7L299,86c1.3,2.4,3,4.1,5.3,5
		c2.3,0.9,4.5,0.9,6.7-0.1C313.1,90,314.6,88.5,315.3,86.4z M320.3,61.8c-0.7,2.2-0.7,5.2,0.1,8.8l17.7-8c-1.6-3-3.5-5-5.8-6
		c-2.3-1-4.7-0.9-7.3,0.3C322.5,57.9,321,59.6,320.3,61.8z"/>
</g>
<g>
	<path class="st0" d="M63.8,256.4c-1.5,0.8-3.1,1.6-4.6,2.4l-2.4-4.6c-4.9,2.1-9.4,2.6-13.5,1.6c-4.1-1-7.2-3.5-9.2-7.3l5.9-3.1
		c1.4,2.2,3.3,3.6,5.8,4.2c2.5,0.6,5.2,0.3,8.2-0.8l-9.4-18l-3.2,0.7c-4.2,0.9-7.9,0.8-11.1-0.4c-3.1-1.2-5.5-3.4-7.2-6.6
		c-2-3.8-2.3-7.6-1-11.3c1.3-3.8,4-7,8.2-9.7l-2.5-4.9l4.6-2.4l2.5,4.8c4.5-1.9,8.7-2.3,12.6-1.2c3.9,1.1,6.9,3.5,9,7.2l-5.9,3.1
		c-1.2-2.1-3-3.5-5.3-4.2c-2.4-0.7-4.9-0.5-7.6,0.5l8.8,16.9l3.4-0.8c4.9-1.1,8.9-1.1,12,0.1c3.2,1.1,5.6,3.4,7.4,6.9
		c2.1,4.1,2.5,8.1,1.1,12c-1.4,3.9-4.5,7.3-9.2,10.3L63.8,256.4z M33.7,225.1c2.1,0.6,4.7,0.5,7.7-0.3l-8.3-15.9
		c-2.4,1.4-3.9,3.3-4.7,5.6c-0.8,2.3-0.6,4.5,0.5,6.7C29.9,223.2,31.5,224.5,33.7,225.1z M58.5,228.7c-2.3-0.6-5.2-0.4-8.8,0.6
		l9,17.2c2.9-1.7,4.8-3.8,5.7-6.1c0.9-2.3,0.6-4.8-0.7-7.3C62.5,230.8,60.7,229.3,58.5,228.7z"/>
</g>
<g>
	<path class="st0" d="M357.3,273.8c-1.6-0.7-3.2-1.4-4.8-2.1l2.1-4.8c-4.7-2.5-7.9-5.7-9.6-9.6c-1.7-3.9-1.7-7.8,0-11.7l6.1,2.7
		c-0.9,2.5-0.8,4.8,0.3,7.1c1,2.3,3,4.3,5.7,6l8.3-18.5l-2.5-2.1c-3.4-2.7-5.6-5.7-6.6-8.9c-1-3.2-0.8-6.4,0.7-9.7
		c1.8-3.9,4.5-6.5,8.3-7.8c3.8-1.3,8-1.2,12.7,0.4l2.2-5l4.8,2.1l-2.2,5c4.2,2.4,7.2,5.4,8.7,9.2c1.6,3.8,1.6,7.6-0.1,11.5l-6.1-2.7
		c0.9-2.3,0.9-4.5,0-6.8c-0.9-2.3-2.6-4.2-5.1-5.6l-7.8,17.4l2.7,2.1c3.9,3.1,6.3,6.3,7.4,9.5c1.1,3.2,0.8,6.5-0.8,10.1
		c-1.9,4.2-4.8,7-8.7,8.3c-3.9,1.3-8.5,1-13.7-0.8L357.3,273.8z M363.2,230.7c0.8,2.1,2.5,4,5,5.9l7.4-16.4c-2.6-1-5-1.1-7.3-0.3
		c-2.3,0.8-4,2.3-5,4.6C362.4,226.6,362.4,228.7,363.2,230.7z M375.7,252.5c-0.9-2.1-2.9-4.3-5.9-6.5l-7.9,17.7
		c3.2,1.2,6,1.5,8.3,0.7c2.4-0.8,4.1-2.4,5.3-5.1C376.6,256.9,376.6,254.6,375.7,252.5z"/>
</g>
<g>
	<path class="st0" d="M90.6,86.3c0.2,1.7,0.4,3.5,0.6,5.2l-5.2,0.6c0.2,5.3-0.9,9.7-3.3,13.2c-2.4,3.5-5.8,5.5-10.1,6l-0.8-6.6
		c2.6-0.5,4.6-1.8,6-3.9c1.4-2.1,2.2-4.7,2.2-8l-20.2,2.4l-0.5,3.2c-0.6,4.3-2,7.7-4.3,10.2c-2.2,2.5-5.1,4-8.7,4.4
		c-4.2,0.5-7.9-0.5-10.9-3.1c-3.1-2.5-5.1-6.3-6.2-11.1l-5.4,0.6l-0.6-5.2l5.4-0.6c-0.2-4.9,1-8.9,3.4-12.2c2.4-3.3,5.7-5.2,9.9-5.9
		l0.8,6.6c-2.4,0.4-4.4,1.5-5.8,3.5c-1.5,2-2.2,4.4-2.2,7.3l19-2.3l0.4-3.4c0.7-4.9,2.1-8.7,4.3-11.2c2.2-2.6,5.2-4.1,9.1-4.5
		c4.6-0.5,8.5,0.5,11.6,3.2c3.1,2.7,5.3,6.8,6.3,12.2L90.6,86.3z M50.7,103.3c1.3-1.8,2.1-4.2,2.4-7.3l-17.8,2.1
		c0.5,2.7,1.7,4.8,3.5,6.4c1.9,1.6,4,2.2,6.5,1.9C47.6,106.1,49.4,105.1,50.7,103.3z M62.9,81.4c-1.4,1.9-2.2,4.7-2.6,8.4l19.2-2.3
		c-0.6-3.4-1.8-5.9-3.7-7.5c-1.9-1.6-4.2-2.3-7.1-2C66.2,78.4,64.2,79.5,62.9,81.4z"/>
</g>
<g>
	<path class="st0" d="M135.3,43.7c-1,1.4-2.1,2.8-3.1,4.2l-4.2-3.1c-3.4,4-7.2,6.5-11.4,7.4c-4.2,0.9-8,0.1-11.5-2.4l3.9-5.4
		c2.2,1.4,4.6,1.8,7,1.2c2.5-0.6,4.8-2,7-4.4l-16.4-11.9l-2.5,2c-3.4,2.7-6.7,4.3-10.1,4.6c-3.3,0.3-6.5-0.5-9.4-2.7
		c-3.5-2.5-5.4-5.7-6-9.7c-0.5-3.9,0.5-8.1,3-12.4L77.3,8l3.1-4.2L84.8,7c3.2-3.7,6.8-5.9,10.8-6.7c4-0.8,7.8,0,11.3,2.4l-3.9,5.4
		c-2-1.4-4.2-1.8-6.7-1.4c-2.4,0.4-4.6,1.7-6.6,3.8l15.5,11.2l2.6-2.2c3.9-3.1,7.5-4.9,10.8-5.3c3.3-0.4,6.6,0.6,9.7,2.8
		c3.8,2.7,5.9,6.1,6.3,10.3c0.5,4.1-0.7,8.5-3.6,13.3L135.3,43.7z M94.4,29.1c2.2-0.4,4.4-1.6,6.8-3.7L86.6,14.8
		c-1.5,2.3-2.1,4.7-1.7,7.1c0.3,2.4,1.5,4.3,3.4,5.8C90.2,29,92.2,29.5,94.4,29.1z M118.2,21.2c-2.3,0.5-4.8,2-7.6,4.5l15.7,11.4
		c1.9-2.9,2.7-5.5,2.4-8c-0.3-2.5-1.6-4.6-3.9-6.2C122.7,21.3,120.5,20.8,118.2,21.2z"/>
</g>
<g>
	<path class="st0" d="M228.4,86.3c-1.7-0.4-3.4-0.7-5.1-1.1l1.1-5.1c-5.1-1.5-8.9-4-11.4-7.4c-2.5-3.4-3.3-7.3-2.4-11.5l6.5,1.4
		c-0.3,2.6,0.2,4.9,1.7,6.9c1.5,2,3.8,3.6,6.8,4.6l4.3-19.9l-2.9-1.5c-3.9-2-6.6-4.4-8.3-7.3c-1.7-2.9-2.1-6.1-1.4-9.6
		c0.9-4.2,3-7.3,6.4-9.4c3.4-2.1,7.6-2.8,12.6-2.3l1.1-5.3l5.1,1.1l-1.1,5.3c4.6,1.4,8.1,3.8,10.5,7.1c2.3,3.3,3.1,7.1,2.4,11.3
		l-6.5-1.4c0.4-2.4,0-4.6-1.4-6.7c-1.4-2-3.4-3.5-6.2-4.4l-4,18.7l3.1,1.5c4.4,2.3,7.5,4.8,9.2,7.7c1.7,2.9,2.2,6.2,1.3,10.1
		c-1,4.5-3.2,7.8-6.8,9.9c-3.6,2.1-8.1,2.8-13.6,2.1L228.4,86.3z M225.2,43c1.2,1.8,3.3,3.4,6.2,4.7l3.8-17.6
		c-2.7-0.4-5.1,0-7.2,1.3c-2.1,1.3-3.4,3.1-3.9,5.5C223.6,39.2,223.9,41.2,225.2,43z M242,61.6c-1.3-1.9-3.7-3.6-7.2-5.2l-4.1,18.9
		c3.4,0.5,6.1,0.2,8.3-1.1c2.2-1.2,3.5-3.3,4.1-6.1C243.7,65.8,243.3,63.5,242,61.6z"/>
</g>
<g>
	<path class="st0" d="M104.1,330.7c-1.7,0.4-3.4,0.9-5.1,1.3l-1.3-5.1c-5.2,1-9.7,0.5-13.5-1.5c-3.8-1.9-6.2-5-7.3-9.2l6.5-1.7
		c0.9,2.5,2.4,4.3,4.7,5.4c2.3,1.1,5,1.5,8.2,1.1L91,301.4l-3.2,0c-4.3,0-7.9-1-10.7-2.8c-2.8-1.9-4.6-4.5-5.6-8
		c-1.1-4.1-0.6-7.9,1.6-11.3c2.1-3.4,5.5-5.9,10.2-7.7l-1.4-5.3L87,265l1.4,5.3c4.8-0.8,9-0.3,12.6,1.7c3.6,1.9,6,4.9,7.2,9
		l-6.4,1.7c-0.7-2.3-2.1-4.1-4.3-5.3c-2.2-1.2-4.7-1.6-7.5-1.2l4.8,18.5l3.5-0.1c5,0,8.9,0.9,11.7,2.7c2.8,1.8,4.7,4.6,5.7,8.4
		c1.2,4.5,0.6,8.5-1.6,11.9c-2.2,3.5-6,6.1-11.2,7.9L104.1,330.7z M81.7,293.4c1.9,1.1,4.5,1.6,7.6,1.4l-4.5-17.4
		c-2.6,0.8-4.6,2.3-5.8,4.4c-1.3,2.1-1.6,4.3-1,6.7C78.5,290.7,79.8,292.3,81.7,293.4z M105.1,302.5c-2.1-1.1-5-1.6-8.7-1.4
		l4.9,18.8c3.3-1,5.6-2.6,6.9-4.7c1.4-2.1,1.7-4.5,1-7.3C108.5,305.4,107.2,303.6,105.1,302.5z"/>
</g>
<g>
	<path class="st0" d="M366.2,381.3c-0.6,1.6-1.2,3.3-1.8,4.9l-4.9-1.8c-2.2,4.8-5.1,8.3-8.8,10.3c-3.7,2-7.6,2.3-11.7,0.9l2.3-6.3
		c2.5,0.7,4.9,0.4,7.1-0.8c2.2-1.2,4-3.3,5.5-6.2l-19.1-6.9l-1.9,2.6c-2.5,3.6-5.3,6-8.4,7.2c-3.1,1.3-6.4,1.3-9.7,0.1
		c-4-1.4-6.8-4-8.4-7.6c-1.6-3.6-1.8-7.9-0.6-12.7l-5.1-1.9l1.8-4.9l5.1,1.8c2-4.4,4.9-7.6,8.5-9.4c3.6-1.9,7.4-2.1,11.5-0.8
		l-2.3,6.2c-2.3-0.8-4.6-0.6-6.8,0.5c-2.2,1.1-3.9,2.9-5.2,5.5l18,6.5l1.9-2.9c2.8-4.1,5.8-6.8,8.9-8.1c3.1-1.3,6.5-1.3,10.1,0
		c4.4,1.6,7.3,4.3,8.9,8.1c1.6,3.8,1.7,8.4,0.2,13.7L366.2,381.3z M322.8,378.7c2-1,3.8-2.8,5.5-5.5l-16.9-6.1
		c-0.8,2.6-0.7,5.1,0.3,7.3c1,2.2,2.6,3.8,4.9,4.6C318.8,379.8,320.8,379.7,322.8,378.7z M343.5,364.5c-2.1,1.1-4.1,3.2-6.1,6.4
		l18.2,6.6c1-3.3,1-6.1,0.1-8.4c-0.9-2.3-2.8-3.9-5.5-4.9C347.8,363.4,345.6,363.5,343.5,364.5z"/>
</g>
<g>
	
		<ellipse transform="matrix(0.2386 -0.9711 0.9711 0.2386 141.9254 448.9192)" class="st1" cx="357.3" cy="133.9" rx="18.4" ry="18.4"/>
	<ellipse transform="matrix(0.2386 -0.9711 0.9711 0.2386 155.907 479.898)" class="st1" cx="384" cy="140.5" rx="18.4" ry="18.4"/>
	<polygon class="st1" points="341,142.7 361.2,174.4 394.3,155.8 370,137.1 	"/>
</g>
<g>
	
		<ellipse transform="matrix(0.7267 -0.687 0.687 0.7267 -17.3395 123.1824)" class="st1" cx="146.1" cy="83.4" rx="18.4" ry="18.4"/>
	
		<ellipse transform="matrix(0.7267 -0.687 0.687 0.7267 -25.9177 141.6514)" class="st1" cx="165.1" cy="103.4" rx="18.4" ry="18.4"/>
	<polygon class="st1" points="127.8,81.9 127.5,119.6 165.5,121.8 155.2,92.9 	"/>
</g>
<g>
	
		<ellipse transform="matrix(0.9017 -0.4323 0.4323 0.9017 -102.9325 188.5352)" class="st1" cx="363.2" cy="320.6" rx="18.4" ry="18.4"/>
	
		<ellipse transform="matrix(0.9017 -0.4323 0.4323 0.9017 -95.3431 198.1023)" class="st1" cx="388" cy="308.7" rx="18.4" ry="18.4"/>
	<polygon class="st1" points="356.2,337.7 392,349.4 405.7,314 375,315 	"/>
</g>
<g>
	
		<ellipse transform="matrix(0.111 -0.9938 0.9938 0.111 -345.2788 361.1959)" class="st1" cx="29.2" cy="373.6" rx="18.4" ry="18.4"/>
	
		<ellipse transform="matrix(0.111 -0.9938 0.9938 0.111 -323.9813 391.1172)" class="st1" cx="56.6" cy="376.6" rx="18.4" ry="18.4"/>
	<polygon class="st1" points="14.3,384.4 38.4,413.2 68.8,390.5 42.3,375 	"/>
</g>
</svg>
