<?xml version="1.0" encoding="utf-8"?>
<!-- Generator: Adobe Illustrator 19.2.0, SVG Export Plug-In . SVG Version: 6.00 Build 0)  -->
<svg version="1.1" id="Layer_1" xmlns="http://www.w3.org/2000/svg" xmlns:xlink="http://www.w3.org/1999/xlink" x="0px" y="0px"
	 viewBox="0 0 602.3 602.3" style="enable-background:new 0 0 602.3 602.3;" xml:space="preserve">
<style type="text/css">
	.st0{fill:#ABABAB;}
	.st1{fill:#FFFFFF;}
	.st2{fill:#5D5E5E;}
</style>
<g>
	<g>
		<circle class="st0" cx="301.2" cy="301.2" r="301.2"/>
	</g>
</g>
<path class="st1" d="M40.9,343.3h48.4V198H40.9V343.3z M307.2,210.1c0-13.3-10.9-24.2-24.2-24.2h-76.4l11.5-55.3l0.4-3.9
	c0-5-2.1-9.6-5.3-12.8l-12.8-12.7L120.6,181c-4.5,4.4-7.1,10.4-7.1,17.1v121.1c0,13.3,10.9,24.2,24.2,24.2h109
	c10,0,18.6-6.1,22.3-14.8l36.6-85.4c1.1-2.8,1.7-5.7,1.7-8.8v-23.1l-0.1-0.1L307.2,210.1z"/>
<path class="st1" d="M561.5,259H513v145.3h48.4V259z M295.1,392.2c0,13.3,10.9,24.2,24.2,24.2h76.4l-11.5,55.3l-0.4,3.9
	c0,5,2.1,9.6,5.3,12.8l12.8,12.7l79.7-79.8c4.5-4.4,7.1-10.4,7.1-17.1V283.2c0-13.3-10.9-24.2-24.2-24.2h-109
	c-10,0-18.6,6.1-22.3,14.8l-36.6,85.4c-1.1,2.8-1.7,5.7-1.7,8.8v23.1l0.1,0.1L295.1,392.2z"/>
<rect x="40.9" y="198" class="st2" width="48.4" height="145.3"/>
<rect x="513" y="259" class="st2" width="48.4" height="145.3"/>
</svg>
