<?xml version="1.0" encoding="utf-8"?>
<!-- Generator: Adobe Illustrator 19.2.0, SVG Export Plug-In . SVG Version: 6.00 Build 0)  -->
<svg version="1.1" id="Layer_1" xmlns="http://www.w3.org/2000/svg" xmlns:xlink="http://www.w3.org/1999/xlink" x="0px" y="0px"
	 viewBox="0 0 602.3 602.3" style="enable-background:new 0 0 602.3 602.3;" xml:space="preserve">
<style type="text/css">
	.st0{fill:#FFFFFF;}
	.st1{fill-rule:evenodd;clip-rule:evenodd;fill:#ABABAB;}
</style>
<g id="XMLID_1_">
	<path class="st0" d="M396.6,134.1c39.6,0,71.3,32,71.3,71.6c0,39.6-31.7,71.6-71.3,71.6c-39.6,0-71.6-32-71.6-71.6
		C325,166.1,357,134.1,396.6,134.1z"/>
	<path class="st1" d="M602.3,301.2c0,53.7-14,104.1-38.7,147.7v-40.3c0-55.6-111.5-83.5-167-83.5c-6.9,0-14.8,0.5-23.1,1.2
		c27.7,20.1,47,47,47,82.3v59.7v109.5c-15.3,6.6-31.2,12-47.7,16V468.2v-59.7c0-55.6-111.4-83.5-167-83.5S38.7,352.9,38.7,408.5
		v40.3C14,405.2,0,354.8,0,301.2C0,134.8,134.8,0,301.2,0S602.3,134.8,602.3,301.2z M468,205.7c0-39.6-31.7-71.6-71.3-71.6
		c-39.6,0-71.6,32-71.6,71.6c0,39.6,32,71.6,71.6,71.6C436.2,277.3,468,245.3,468,205.7z M277.1,205.7c0-39.6-31.7-71.6-71.3-71.6
		c-39.6,0-71.6,32-71.6,71.6c0,39.6,32,71.6,71.6,71.6C245.3,277.3,277.1,245.3,277.1,205.7z"/>
	<path class="st0" d="M38.7,448.9v-40.3c0-55.6,111.4-83.5,167.1-83.5s167,27.9,167,83.5v59.7v125.5c-22.9,5.6-46.9,8.6-71.6,8.6
		c-104.5,0-196.6-53.2-250.6-134.1C46.3,461.9,42.4,455.5,38.7,448.9z"/>
	<path class="st0" d="M205.7,134.1c39.6,0,71.3,32,71.3,71.6c0,39.6-31.7,71.6-71.3,71.6c-39.6,0-71.6-32-71.6-71.6
		C134.1,166.1,166.1,134.1,205.7,134.1z"/>
	<path class="st0" d="M551.8,468.2c-32.1,48.1-77.7,86.4-131.3,109.5V468.2v-59.7c0-35.3-19.3-62.3-47-82.3
		c8.4-0.7,16.2-1.2,23.1-1.2c55.6,0,167,27.9,167,83.5v40.3C559.9,455.5,556,461.9,551.8,468.2z"/>
</g>
</svg>
